<?xml version="1.0" encoding="UTF-8"?>
<svg id="Livello_1" data-name="Livello 1" xmlns="http://www.w3.org/2000/svg" viewBox="0 0 489.88 374.04">
  <path d="m0,74.16c6.34-12.68,11.96-15.19,30.29-13.1,0,1.92,0,3.92,0,5.93,0,69.98.03,139.96-.03,209.94,0,11.16,2.32,21.49,9.32,30.42,9.27,11.83,21.57,17.39,36.48,17.68,20.13.39,40.06,2.46,59.59,7.55,24.49,6.39,47.12,16.54,66.45,33.26.96.83,1.9,1.7,2.81,2.59.21.2.27.55.48,1-9.41-1.63-18.66-3.51-27.99-4.8-27.58-3.81-55.32-4.8-82.96-1.69-23.86,2.68-47.56,6.8-71.28,10.57-11.41,1.81-17.54-1.42-23.16-13.27V74.16Z"/>
  <path d="m231.07,355.31c-3.8-3.5-6.98-6.58-10.32-9.47-28.43-24.6-61.89-38.13-98.63-43.75-14.91-2.28-30.07-3.08-45.15-4.04-12.78-.82-19.52-7.42-19.53-20.34-.01-85.92-.02-171.84,0-257.76,0-13.51,7.54-20.34,21.05-19.94,24.49.72,48.54,3.79,71.83,11.77,31.86,10.91,58.32,29.05,76.76,57.69,2.37,3.69,4.13,8.54,4.14,12.86.23,90.22.17,180.45.17,270.67,0,.46-.12.92-.32,2.31Z"/>
  <path d="m258.47,355.46v-6.45c0-86.08.23-172.16-.26-258.24-.07-12.65,4.18-22.34,11.73-31.66,24.23-29.9,56.31-46.37,93.29-53.58,16.49-3.21,33.45-4.2,50.25-5.46,11.58-.87,18.94,7.23,18.95,19.57.02,64.08.01,128.16.01,192.24,0,22,.02,44,0,65.99-.02,12.79-6.83,19.84-19.7,20.05-31.13.52-61.53,5.01-90.7,16.34-22.39,8.69-42.5,20.97-59.7,37.84-.97.95-2.05,1.79-3.86,3.34Z"/>
  <path d="m459.59,60.79c5.45,0,10.24-.31,14.98.07,7.91.64,14.28,7.33,15.17,15.44.16,1.42.13,2.87.13,4.3,0,91.2.01,182.4,0,273.6,0,11.77-6.96,19.92-17.28,19.84-3.77-.03-7.57-.99-11.29-1.79-42-8.98-84.44-13.03-127.31-9.82-15.82,1.18-31.49,4.52-47.22,6.87-.73.11-1.45.22-2.18.34-.26-.43-.53-.87-.79-1.3,8.42-5.88,16.5-12.35,25.33-17.52,28.7-16.8,60.27-23.53,93.12-25.3,3.82-.21,7.65-.33,11.47-.48,27.92-1.11,45.81-19.55,45.85-47.54.07-54.53.02-109.06.02-163.59,0-15.78,0-31.57,0-47.35v-5.77Z"/>
</svg>