<?xml version="1.0" encoding="UTF-8"?>
<svg id="Livello_1" data-name="Livello 1" xmlns="http://www.w3.org/2000/svg" viewBox="0 0 484.67 407.56">
  <path d="m484.67,311.66c-19.3,9.31-39.71,15.11-60.8,18.33-12.9,1.97-25.94,2.98-39.73,4.51,0-3.07-.02-5.37,0-7.67.17-16.11.08-32.18-5.1-47.72-11.17-33.51-33.35-56.48-66.23-69.21-1.71-.66-3.43-1.27-5.8-2.15,16.89-17.02,25.77-37.15,26.85-60.79,20.69,0,40.86-.24,61.03.13,7.02.13,14.18,1.09,21,2.77,35.83,8.85,62.42,38.5,67.78,74.99.18,1.2.65,2.35.99,3.53v83.28Z"/>
  <path d="m124.41,342.9c.54-15.26.06-30.64,1.81-45.76,4.33-37.36,37.06-70.27,74.41-75.35,10.56-1.44,21.35-1.49,32.04-1.57,16.7-.13,33.43-.25,50.1.51,43.16,1.98,81.21,38.8,83.55,81.92,1.43,26.41.68,52.94.68,79.41,0,1.45-1.83,3.5-3.32,4.24-16.49,8.19-34.11,12.9-52.14,16.12-62.41,11.13-123.27,3.31-183.25-15.19-2.89-.89-3.44-2.39-3.42-5.07.11-13.08.05-26.17.05-39.25-.17,0-.34-.01-.52-.02Z"/>
  <path d="m184.31,207.57c-57.8,22.37-80.73,65.66-76.04,126.25-11.31-1.24-21.76-2.21-32.16-3.57-23.94-3.13-47.24-9.15-70.42-15.75-4.06-1.16-5.75-2.64-5.69-7.3.31-22.85.02-45.71.17-68.56.29-44.96,31.01-82.09,74.52-90.18,3.86-.72,7.8-1.32,11.71-1.34,22.38-.15,44.76-.11,67.14-.12,1.39,0,2.77.21,4.09.31,3.63,28.55,9.23,40.25,26.67,60.26Z"/>
  <path d="m175.04,144.42c-.08-39.17,31.53-70.98,70.72-71.17,38.95-.19,71.05,31.65,71.31,70.74.27,39.18-31.8,71.31-71.12,71.26-39.32-.05-70.83-31.52-70.91-70.84Z"/>
  <path d="m50.29,70.81C50.35,34.78,78.03,3.85,113.31.37c37.28-3.68,70.59,20.71,77.7,56.93.51,2.62.69,5.31,1.12,7.94,1.01,6.18-.81,10.57-5.84,15.04-13.91,12.35-22.63,28.07-26.26,46.42-.59,2.98-1.81,4.88-4.65,6.43-47.51,25.88-105.2-8.28-105.1-62.33Z"/>
  <path d="m363.63,0c37.58.08,69.2,29.87,70.8,66.7,1.69,38.93-26.02,71.24-64.19,74.9-11.69,1.12-22.94-.57-33.68-5.2-1.49-.64-3.11-2.65-3.37-4.24-4.25-25.57-16.83-45.84-38.23-60.48-2.77-1.9-2.37-4.09-2.18-6.54C295.74,28.38,326.7-.08,363.63,0Z"/>
</svg>