<?xml version="1.0" encoding="UTF-8"?>
<svg id="Livello_1" data-name="Livello 1" xmlns="http://www.w3.org/2000/svg" viewBox="0 0 433.52 408.91">
  <path d="m0,43.61C0,39.94,0,36.27,0,32.6c.26-.63.62-1.24.77-1.89C4.35,14.51,17.32,2.21,32.72.44c17.57-2.03,32.55,6.12,40,22.08,1.22,2.61,2.77,2.99,5.21,2.98,17.07-.07,34.15-.09,51.22-.01,8.84.04,13.83,5.15,13.89,14,.04,5.93,0,11.85,0,17.78,0,4.42,0,8.83,0,13.98,6.3-3.22,11.87-5.9,17.28-8.86,17.36-9.5,34.2-19.7,47.85-34.43,4.9-5.29,12.49-4.78,17.71.48,3.27,3.3,6.51,6.68,10.08,9.64,14.74,12.23,31.28,21.61,48.37,30.08,1.84.91,3.72,1.76,6.1,2.89,0-10.65,0-20.63,0-30.62.01-10.18,4.8-14.96,15.06-14.97,16.37-.02,32.74-.08,49.11.06,3.32.03,5.13-.77,6.69-4.04,7.59-16,25.35-24.45,42.28-20.53,17.65,4.09,29.94,19.39,29.91,37.21-.02,17.81-12.37,33.07-30.03,37.13-17.03,3.92-34.75-4.76-42.44-21.04-1.21-2.57-2.49-3.52-5.32-3.48-11.99.16-23.99.06-35.98.08-1.2,0-2.41.22-3.86.36,0,9.91-.1,19.49.14,29.06.03,1.07,1.82,2.6,3.1,3.06,15.11,5.43,30.25,10.74,45.43,15.98,7.97,2.75,11.08,6.07,11.2,14.36.18,12.54.04,25.1-.5,37.64-.35,8.26-1.63,16.48-2.54,25.16,1.69,0,3.21,0,4.73,0,14.53,0,29.07-.07,43.6.04,6.49.05,11.61,4.82,12.4,11.12.77,6.15-3.24,12.03-9.52,13.64-1.88.48-3.9.57-5.85.57-16.78.04-33.56.02-50.37.02-3.45,11.63-6.83,23.02-10.3,34.72,10.93,0,21.51-.02,32.08.02,1.82,0,3.71-.04,5.46.39,6.17,1.48,10.42,7.59,9.66,13.6-.83,6.59-6.14,11.32-13.13,11.36-13.55.09-27.09.11-40.64-.03-2.88-.03-4.44.71-5.72,3.5-9.76,21.2-21.73,41.1-35.81,59.73-.79,1.04-1.5,2.15-2.6,3.75,16.94,0,33.03-.09,49.1.08,2.89.03,4.01-1.02,5.23-3.5,6.4-13.06,16.98-20.61,31.47-21.81,19.25-1.59,36.65,11.75,40.2,30.23,3.7,19.23-7.02,37.8-25.33,43.87-18.31,6.07-38.16-2.45-46.39-20.19-1.24-2.68-2.61-3.34-5.33-3.33-22.15.1-44.31.12-66.46-.01-3.07-.02-5.21.83-7.34,3.07-17.06,17.96-35.88,33.89-56.13,48.14-6.58,4.63-11.27,4.6-17.81,0-20.38-14.31-39.29-30.35-56.46-48.4-1.9-2-3.81-2.83-6.58-2.81-22.01.11-44.03.13-66.04-.02-3.34-.02-5.11.81-6.63,4.03-6.64,14.12-21.41,22.5-36.84,21.36-15.2-1.12-28.55-11.51-33.38-26.02C1.2,351.34.65,349.02,0,346.72c0-3.39,0-6.77,0-10.16.28-.93.62-1.84.83-2.78,3.8-16.53,17.08-28.46,33.55-30.11,16.09-1.62,31.29,7.12,38.33,22.31,1.06,2.29,2.26,3.01,4.7,3,15.38-.1,30.75-.05,46.13-.06.89,0,1.78-.16,3.07-.29-.67-1.01-1.02-1.61-1.43-2.15-14.63-19.27-27.11-39.83-37.14-61.85-1.01-2.23-2.36-2.67-4.55-2.66-13.82.08-27.65.11-41.48,0-7.46-.06-13.14-5.68-13.15-12.67-.02-7.05,5.59-12.55,13.1-12.67,6.49-.1,12.98-.03,19.47-.03,4.85,0,9.69,0,14.7,0-3.53-11.9-6.89-23.19-10.31-34.72-16.24,0-32.46-.27-48.66.11C9.3,202.17,3.51,199.8,0,192.62v-6.77c3.2-7.21,8.71-9.76,16.55-9.5,13.25.44,26.52.12,39.79.12,1.48,0,2.96,0,4.6,0-.12-1.47-.14-2.31-.27-3.14-3.07-19.58-4-39.28-3-59.06.45-8.87,3.26-12.17,11.56-15,15.19-5.18,30.33-10.55,45.44-15.97,1.18-.42,2.84-1.85,2.86-2.84.21-9.7.13-19.4.13-29.61-1.93,0-3.44,0-4.95,0-11.29,0-22.58.11-33.86-.07-3.33-.05-5.13.81-6.7,4.05-11.14,22.93-40.86,28.42-59.75,11.32C5.62,60.03,2.26,52.15,0,43.61Zm216.81,246.39c15.09,0,30.19.02,45.28,0,14.35-.03,24.31-9.24,24.47-23.48.28-24.12.13-48.25.04-72.37-.03-8-3.18-14.99-10.14-18.87-4.81-2.68-6.14-5.81-5.42-10.66.1-.69,0-1.41-.02-2.11-.5-22.62-15.6-43.01-37.09-50.1-21.9-7.22-46.03.13-60,18.16-8.6,11.1-12.14,23.67-11.49,37.56.11,2.29.02,4.04-2.67,5.38-8.44,4.19-12.82,11.35-12.87,20.75-.13,24.12-.24,48.25.04,72.37.16,14.02,10.13,23.32,24.17,23.35,15.24.04,30.47,0,45.71,0Z"/>
  <path d="m261.01,196.79v67.62h-88.47v-67.62h88.47Zm-31.29,33.86c-.09,0-.19-.02-.28-.03,0-1.69.08-3.38-.01-5.07-.4-6.92-5.91-12.2-12.65-12.21-6.72,0-12.33,5.32-12.67,12.19-.16,3.37-.18,6.76.01,10.13.34,6.17,5.13,11.18,11.16,11.93,6.02.75,11.81-2.97,13.5-9.05.7-2.52.66-5.26.96-7.89Z"/>
  <path d="m245.42,170.72h-57.3c-1.44-12.77,1.72-23.5,12.63-30.73,9.9-6.56,20.46-6.89,30.7-.81,11.78,7,15.32,18.01,13.97,31.54Z"/>
</svg>