<?xml version="1.0" encoding="UTF-8"?>
<svg width="32" height="32" xmlns="http://www.w3.org/2000/svg" viewBox="0 0 32 32">
  <g>
    <path class="cls-1" d="m13.57,15.86c.09.27.12.55.15.72-.05.89-.31,1.56-.96,2.02-.73.52-1.67.45-2.35-.18-.98-.89-.96-2.63.03-3.5,1.06-.94,2.67-.46,3.13.94Zm7.46,0c-.5-1.48-2.25-1.9-3.27-.79-.84.91-.81,2.42.06,3.3.76.77,1.91.78,2.68,0,.46-.46.66-1.04.68-1.75-.01-.09-.02-.25-.05-.41-.02-.12-.05-.24-.09-.36Zm10.97-9.17v18.64c0,3.69-2.99,6.68-6.68,6.68H6.68c-3.69,0-6.68-2.99-6.68-6.68V6.68C0,2.99,2.99,0,6.68,0h18.64c3.69,0,6.68,2.99,6.68,6.68Zm-8.7,2.14c-.05-.07-.13-.14-.21-.18-1.39-.63-2.83-1.07-4.33-1.35-.14-.03-.22,0-.28.14-.14.3-.3.59-.43.89-.06.14-.13.16-.26.14-1.59-.23-3.17-.23-4.76,0-.13.02-.19,0-.25-.13-.14-.31-.3-.6-.44-.9-.06-.12-.13-.16-.26-.13-1.51.28-2.97.73-4.37,1.37-.08.04-.16.13-.21.21-1.44,2.18-2.49,4.53-2.97,7.11-.14.74-.2,1.5-.3,2.25-.01.09-.03.18-.04.28v2.1c.03.26.05.52.09.78.01.08.06.18.13.23,1.65,1.21,3.45,2.12,5.4,2.73.07.02.2,0,.23-.06.39-.6.77-1.2,1.17-1.82-.67-.32-1.29-.62-1.91-.92.26-.37.4-.41.76-.25,1.96.84,4,1.22,6.12,1.1,1.59-.09,3.11-.47,4.57-1.1.38-.17.44-.15.74.22-.06.04-.12.09-.19.12-.49.23-.97.47-1.46.69-.17.07-.21.14-.11.3.34.54.67,1.08,1,1.62.07.12.15.15.29.1,1.95-.61,3.75-1.53,5.4-2.73.06-.05.12-.15.13-.23.44-4.58-.69-8.76-3.26-12.57Z"/>
  </g>
</svg>